# 3ds Max Wavefront OBJ Exporter v0.97b - (c)2007 guruware
# File Created: 23.08.2020 18:38:48

#
# object Box001
#

v  -0.1045 -0.0000 0.1219
v  -0.1045 0.0000 -0.1219
v  0.1045 0.0000 -0.1219
v  0.1045 -0.0000 0.1219
v  -0.1682 2.1144 0.1677
v  0.1682 2.1144 0.1677
v  0.1682 2.1144 -0.1677
v  -0.1682 2.1144 -0.1677
v  -0.3380 0.4543 0.3370
v  0.3380 0.4543 0.3370
v  0.3380 0.4543 -0.3370
v  -0.3380 0.4543 -0.3370
v  -0.1719 0.4543 -0.1918
v  -0.1719 0.4543 0.1918
v  0.1719 0.4543 -0.1918
v  0.1719 0.4543 0.1918
# 16 vertices

vn -0.5353 -0.6551 0.5332
vn -0.5353 -0.6551 -0.5332
vn 0.5353 -0.6551 -0.5332
vn 0.5353 -0.6551 0.5332
vn -0.5488 0.6304 0.5489
vn 0.5488 0.6304 0.5489
vn 0.5488 0.6304 -0.5489
vn -0.5488 0.6304 -0.5489
vn -0.6023 -0.5241 0.6022
vn 0.6023 -0.5241 0.6022
vn 0.6023 -0.5241 -0.6022
vn -0.6023 -0.5241 -0.6022
vn -0.2549 -0.9325 -0.2557
vn -0.2549 -0.9325 0.2557
vn 0.2549 -0.9325 -0.2557
vn 0.2549 -0.9325 0.2557
# 16 vertex normals

vt 0.9208 0.0600 0.0000
vt 0.9208 0.9400 0.0000
vt 0.0792 0.9400 0.0000
vt 0.0792 0.0600 0.0000
vt 0.0000 0.0000 0.0000
vt 1.0000 0.0000 0.0000
vt 1.0000 1.0000 0.0000
vt 0.0000 1.0000 0.0000
# 8 texture coords

o Box001
g Box001
f 1/1/1 2/2/2 3/3/3 4/4/4 
f 5/5/5 6/6/6 7/7/7 8/8/8 
f 9/5/9 10/6/10 6/7/6 5/8/5 
f 10/5/10 11/6/11 7/7/7 6/8/6 
f 11/5/11 12/6/12 8/7/8 7/8/7 
f 12/5/12 9/6/9 5/7/5 8/8/8 
f 9/6/9 12/7/12 13/7/13 14/6/14 
f 12/7/12 11/8/11 15/8/15 13/7/13 
f 11/8/11 10/5/10 16/5/16 15/8/15 
f 10/5/10 9/6/9 14/6/14 16/5/16 
f 1/1/1 14/6/14 13/7/13 2/2/2 
f 2/2/2 13/7/13 15/8/15 3/3/3 
f 3/3/3 15/8/15 16/5/16 4/4/4 
f 4/4/4 16/5/16 14/6/14 1/1/1 
# 14 polygons

